<?xml version="1.0" encoding="utf-8"?>
<!-- Generator: Adobe Illustrator 27.7.0, SVG Export Plug-In . SVG Version: 6.00 Build 0)  -->
<svg version="1.1" id="meteor-icon-kit__solid-twitter"
	 xmlns="http://www.w3.org/2000/svg" xmlns:xlink="http://www.w3.org/1999/xlink" x="0px" y="0px" viewBox="0 0 800 800"
	 style="enable-background:new 0 0 800 800;" xml:space="preserve">
<style type="text/css">
	.st0{fill-rule:evenodd;clip-rule:evenodd;fill:#758CA3;}
	.st1{fill:none;stroke:#000000;stroke-width:15;stroke-miterlimit:10;}
	.st2{fill:none;}
</style>
<path class="st0" d="M251.6,733.3c301.9,0,467-256.5,467-478.9c0-7.3,0-14.5-0.5-21.8c32.1-23.8,59.9-53.3,81.9-87.1
	c-30,13.6-61.7,22.5-94.3,26.5c34.3-21,59.9-54.1,72.2-93.1c-32.2,19.6-67.5,33.4-104.2,40.9c-50.9-55.5-131.7-69.1-197.2-33.1
	C411,122.5,377.2,199.1,394,273.3C262,266.5,139,202.5,55.7,97.4c-43.6,76.9-21.3,175.3,50.8,224.7c-26.1-0.8-51.7-8-74.5-21.1
	c0,0.7,0,1.4,0,2.1c0,80.1,55.1,149.1,131.7,165c-24.2,6.8-49.5,7.7-74.1,2.9c21.5,68.6,83.1,115.5,153.3,116.9
	c-58.1,46.8-129.9,72.3-203.8,72.2c-13.1,0-26.1-0.8-39.1-2.4c75.1,49.4,162.4,75.6,251.6,75.5"/>
<g>
	<line class="st1" x1="622.3" y1="114.6" x2="558" y2="191.2"/>
	<line class="st1" x1="558" y1="114.6" x2="622.3" y2="191.2"/>
</g>
<rect class="st2" width="800" height="800"/>
</svg>
